<svg width="572" height="572" viewBox="0 0 572 572" fill="none" xmlns="http://www.w3.org/2000/svg">
<path d="M318.564 134.262C334.654 116.2 344.543 108.091 363.965 97.839V398.607L318.564 407.988V134.262Z" fill="white"/>
<path d="M463.627 285.474C473.039 265.607 474.147 256.777 476.667 236.396L128.653 311.963C120.401 330.346 117.744 340.622 116.472 358.872L463.627 285.474Z" fill="white"/>
<path d="M463.627 377.598C473.039 357.73 474.147 348.9 476.667 328.52L320.225 361.632C319.118 379.843 320.389 389.186 319.118 407.436L463.627 377.598Z" fill="white"/>
<path d="M463.627 469.708C473.039 449.841 474.147 441.011 476.667 420.63L334.067 451.586C326.869 461.519 322.44 478.075 319.118 499.547L463.627 469.708Z" fill="white"/>
<path d="M237.174 438.341C251.016 421.233 265.411 399.71 275.377 382.051L107.514 418.435C99.2613 436.818 96.6049 447.094 95.3331 465.344L237.174 438.341Z" fill="white"/>
<path d="M229.976 108.876C246.067 90.8143 255.955 82.7052 275.377 72.4531V383.154L229.976 392.536V108.876Z" fill="white"/>
</svg>
